<svg xmlns="http://www.w3.org/2000/svg" version="1.1" xmlns:xlink="http://www.w3.org/1999/xlink" xmlns:svgjs="http://svgjs.dev/svgjs" width="1500" height="1500" viewBox="0 0 1500 1500"><rect width="1500" height="1500" fill="#413659"></rect><g transform="matrix(0.6666666666666666,0,0,0.6666666666666666,249.39393939393938,640.0362542431523)"><svg viewBox="0 0 396 87" data-background-color="#413659" preserveAspectRatio="xMidYMid meet" height="329" width="1500" xmlns="http://www.w3.org/2000/svg" xmlns:xlink="http://www.w3.org/1999/xlink"><g id="tight-bounds" transform="matrix(1,0,0,1,0.2400000000000091,0.1178383625186541)"><svg viewBox="0 0 395.52 86.7643232749627" height="86.7643232749627" width="395.52"><g><svg viewBox="0 0 602.2754991585425 132.11980711362588" height="86.7643232749627" width="395.52"><g transform="matrix(1,0,0,1,206.7554991585425,4.777570671721712)"><svg viewBox="0 0 395.52000000000004 122.56466577018246" height="122.56466577018246" width="395.52000000000004"><g id="textblocktransform"><svg viewBox="0 0 395.52000000000004 122.56466577018246" height="122.56466577018246" width="395.52000000000004" id="textblock"><g><svg viewBox="0 0 395.52000000000004 78.25297297297297" height="78.25297297297297" width="395.52000000000004"><g transform="matrix(1,0,0,1,0,0)"><svg width="395.52000000000004" viewBox="4 -37.5 190.53 37.7" height="78.25297297297297" data-palette-color="#f7f7ee"><path d="M22.2-35L21.95-32 7.4-32 7.4-18.85 20.9-18.85 20.65-15.85 7.4-15.85 7.4 0 4 0 4-35 22.2-35ZM39.95-24.5L38.65-21.5Q37.85-21.95 36.95-21.95 36.05-21.95 35.95-21.9L35.95-21.9Q34.05-21.9 32.12-20.53 30.2-19.15 28.85-17.45L28.85-17.45 28.85 0 25.6 0 25.6-25 28.85-25.25 28.85-19.65Q30.7-22 32-22.95L32-22.95Q34.4-24.75 36.6-24.85L36.6-24.85Q36.9-24.9 37.7-24.9 38.5-24.9 39.95-24.5L39.95-24.5ZM41.25-6.4L41.25-6.4Q40.35-8.8 40.35-12L40.35-12Q40.35-18.15 43.8-21.68 47.25-25.2 52.45-25.2L52.45-25.2Q60.6-25.2 63.15-18.6L63.15-18.6Q64.09-16.2 64.09-13L64.09-13Q64.09-6.85 60.65-3.33 57.2 0.2 52 0.2L52 0.2Q43.85 0.2 41.25-6.4ZM43.6-12.35Q43.6-7.75 45.97-5.23 48.35-2.7 52.1-2.7 55.85-2.7 58.35-5.38 60.85-8.05 60.85-12.65 60.85-17.25 58.5-19.78 56.15-22.3 52.37-22.3 48.6-22.3 46.1-19.63 43.6-16.95 43.6-12.35ZM71.39-25.25L71.39-22.25Q75.14-25 78.49-25.15L78.49-25.15Q81.54-25.15 83.19-24.4 84.84-23.65 85.92-22.28 86.99-20.9 86.99-18.4L86.99-18.4 86.99 0 83.74 0 83.74-17.55Q83.74-19.4 82.94-20.4L82.94-20.4Q81.34-22.25 78.04-22.25L78.04-22.25Q74.89-22.1 71.39-20.2L71.39-20.2 71.39 0 68.14 0 68.14-25 71.39-25.25ZM105.79 0L102.64 0 102.64-32 92.74-32 92.99-35 115.64-35 115.39-32 105.79-32 105.79 0ZM115.79-6.4L115.79-6.4Q114.89-8.8 114.89-12L114.89-12Q114.89-18.15 118.34-21.68 121.79-25.2 126.99-25.2L126.99-25.2Q135.14-25.2 137.69-18.6L137.69-18.6Q138.64-16.2 138.64-13L138.64-13Q138.64-6.85 135.19-3.33 131.74 0.2 126.54 0.2L126.54 0.2Q118.39 0.2 115.79-6.4ZM118.14-12.35Q118.14-7.75 120.51-5.23 122.89-2.7 126.64-2.7 130.39-2.7 132.89-5.38 135.39-8.05 135.39-12.65 135.39-17.25 133.04-19.78 130.69-22.3 126.91-22.3 123.14-22.3 120.64-19.63 118.14-16.95 118.14-12.35ZM142.79-6.4L142.79-6.4Q141.89-8.8 141.89-12L141.89-12Q141.89-18.15 145.34-21.68 148.79-25.2 153.99-25.2L153.99-25.2Q162.14-25.2 164.69-18.6L164.69-18.6Q165.64-16.2 165.64-13L165.64-13Q165.64-6.85 162.19-3.33 158.74 0.2 153.54 0.2L153.54 0.2Q145.39 0.2 142.79-6.4ZM145.14-12.35Q145.14-7.75 147.51-5.23 149.89-2.7 153.64-2.7 157.39-2.7 159.89-5.38 162.39-8.05 162.39-12.65 162.39-17.25 160.04-19.78 157.69-22.3 153.91-22.3 150.14-22.3 147.64-19.63 145.14-16.95 145.14-12.35ZM173.43 0L170.18 0 170.18-37.25 173.43-37.5 173.43 0ZM193.18-24.5L192.38-21.7Q190.58-22.3 187.48-22.3 184.38-22.3 182.68-21.2 180.98-20.1 180.98-18.48 180.98-16.85 181.98-16.1 182.98-15.35 184.48-14.83 185.98-14.3 187.76-13.8 189.53-13.3 191.03-12.5L191.03-12.5Q194.53-10.7 194.53-7.15 194.53-3.6 192.11-1.7 189.68 0.2 185.03 0.2L185.03 0.2Q182.68 0.2 180.51-0.28 178.33-0.75 177.18-1.6L177.18-1.6 178.28-4.25Q179.43-3.25 182.93-2.8L182.93-2.8Q184.03-2.65 185.18-2.65L185.18-2.65Q187.78-2.65 189.53-3.73 191.28-4.8 191.28-7L191.28-7Q191.28-8.5 190.28-9.35 189.28-10.2 187.78-10.78 186.28-11.35 184.51-11.8 182.73-12.25 181.23-12.98 179.73-13.7 178.73-14.88 177.73-16.05 177.73-18.05L177.73-18.05Q177.73-21.3 180.23-23.25 182.73-25.2 186.93-25.2L186.93-25.2Q187.98-25.2 189.08-25.08 190.18-24.95 191.08-24.85L191.08-24.85 193.18-24.5Z" opacity="1" transform="matrix(1,0,0,1,0,0)" fill="#f7f7ee" class="wordmark-text-0" data-fill-palette-color="primary" id="text-0"></path></svg></g></svg></g><g transform="matrix(1,0,0,1,0,96.72662182054054)"><svg viewBox="0 0 232.20979200000002 25.838043949641918" height="25.838043949641918" width="232.20979200000002"><g transform="matrix(1,0,0,1,0,0)"><svg width="232.20979200000002" viewBox="3.83 -35.55 323.82 36.04" height="25.838043949641918" data-palette-color="#f7f7ee"><path d="M20.31-19.53L20.31-15.7 8.3-15.7 8.3 0 3.83 0 3.83-35.55 22.34-35.55 22.34-31.69 8.3-31.69 8.3-19.53 20.31-19.53ZM37.5-26.56L37.52-22.36Q36.62-22.53 35.57-22.53L35.57-22.53Q32.25-22.53 30.93-18.9L30.93-18.9 30.93 0 26.61 0 26.61-26.42 30.81-26.42 30.88-23.73Q32.61-26.9 35.79-26.9L35.79-26.9Q36.81-26.9 37.5-26.56L37.5-26.56ZM40.42-11.55L40.42-14.43Q40.42-20.19 43.22-23.55 46.02-26.9 50.61-26.9 55.2-26.9 57.99-23.63 60.79-20.36 60.86-14.72L60.86-14.72 60.86-11.94Q60.86-6.2 58.08-2.86 55.29 0.49 50.65 0.49L50.65 0.49Q46.06 0.49 43.29-2.76 40.52-6.01 40.42-11.55L40.42-11.55ZM44.75-14.45L44.75-11.94Q44.75-7.86 46.35-5.53 47.94-3.2 50.65-3.2L50.65-3.2Q56.37-3.2 56.54-11.45L56.54-11.45 56.54-14.43Q56.54-18.48 54.93-20.84 53.32-23.19 50.61-23.19L50.61-23.19Q47.94-23.19 46.35-20.84 44.75-18.48 44.75-14.45L44.75-14.45ZM66.45-26.42L70.5-26.42 70.6-23.97Q73.01-26.9 76.97-26.9L76.97-26.9Q81.39-26.9 83.15-23.07L83.15-23.07Q85.64-26.9 90.08-26.9L90.08-26.9Q97.38-26.9 97.55-17.8L97.55-17.8 97.55 0 93.25 0 93.25-17.38Q93.25-20.26 92.23-21.67 91.2-23.07 88.76-23.07L88.76-23.07Q86.81-23.07 85.59-21.56 84.37-20.04 84.17-17.7L84.17-17.7 84.17 0 79.83 0 79.83-17.58Q79.75-23.07 75.36-23.07L75.36-23.07Q72.09-23.07 70.74-19.8L70.74-19.8 70.74 0 66.45 0 66.45-26.42ZM124.06 0L116.1 0 116.1-35.55 124.57-35.55Q130.8-35.55 134.24-31.65 137.68-27.76 137.68-20.7L137.68-20.7 137.68-14.75Q137.68-7.69 134.19-3.85 130.7 0 124.06 0L124.06 0ZM124.57-31.69L120.57-31.69 120.57-3.83 124.16-3.83Q128.87-3.83 131.04-6.53 133.22-9.23 133.26-14.53L133.26-14.53 133.26-20.83Q133.26-26.44 131.1-29.06 128.94-31.69 124.57-31.69L124.57-31.69ZM153.48 0.49L153.48 0.49Q148.54 0.49 145.91-2.45 143.27-5.4 143.22-11.08L143.22-11.08 143.22-14.28Q143.22-20.19 145.8-23.55 148.37-26.9 152.99-26.9L152.99-26.9Q157.63-26.9 159.92-23.95 162.22-21 162.27-14.75L162.27-14.75 162.27-11.91 147.52-11.91 147.52-11.3Q147.52-7.06 149.12-5.13 150.72-3.2 153.72-3.2L153.72-3.2Q155.62-3.2 157.08-3.92 158.53-4.64 159.8-6.2L159.8-6.2 162.05-3.47Q159.24 0.49 153.48 0.49ZM152.99-23.19L152.99-23.19Q150.3-23.19 149.01-21.35 147.71-19.51 147.54-15.63L147.54-15.63 157.94-15.63 157.94-16.21Q157.77-19.97 156.59-21.58 155.4-23.19 152.99-23.19ZM169.42-26.42L174.62-6.57 179.62-26.42 184.02-26.42 176.18 0 172.96 0 165.02-26.42 169.42-26.42ZM220.36-35.55L220.36-31.69 211.01-31.69 211.01 0 206.54 0 206.54-31.69 197.22-31.69 197.22-35.55 220.36-35.55ZM221.68-11.55L221.68-14.43Q221.68-20.19 224.47-23.55 227.27-26.9 231.86-26.9 236.45-26.9 239.25-23.63 242.04-20.36 242.11-14.72L242.11-14.72 242.11-11.94Q242.11-6.2 239.33-2.86 236.55 0.49 231.91 0.49L231.91 0.49Q227.32 0.49 224.55-2.76 221.78-6.01 221.68-11.55L221.68-11.55ZM226-14.45L226-11.94Q226-7.86 227.6-5.53 229.2-3.2 231.91-3.2L231.91-3.2Q237.62-3.2 237.79-11.45L237.79-11.45 237.79-14.43Q237.79-18.48 236.18-20.84 234.57-23.19 231.86-23.19L231.86-23.19Q229.2-23.19 227.6-20.84 226-18.48 226-14.45L226-14.45ZM267.69 0L259.74 0 259.74-35.55 268.21-35.55Q274.43-35.55 277.88-31.65 281.32-27.76 281.32-20.7L281.32-20.7 281.32-14.75Q281.32-7.69 277.83-3.85 274.34 0 267.69 0L267.69 0ZM268.21-31.69L264.2-31.69 264.2-3.83 267.79-3.83Q272.5-3.83 274.68-6.53 276.85-9.23 276.9-14.53L276.9-14.53 276.9-20.83Q276.9-26.44 274.74-29.06 272.58-31.69 268.21-31.69L268.21-31.69ZM297.11 0.49L297.11 0.49Q292.18 0.49 289.54-2.45 286.91-5.4 286.86-11.08L286.86-11.08 286.86-14.28Q286.86-20.19 289.43-23.55 292.01-26.9 296.62-26.9L296.62-26.9Q301.26-26.9 303.56-23.95 305.85-21 305.9-14.75L305.9-14.75 305.9-11.91 291.15-11.91 291.15-11.3Q291.15-7.06 292.75-5.13 294.35-3.2 297.36-3.2L297.36-3.2Q299.26-3.2 300.71-3.92 302.16-4.64 303.43-6.2L303.43-6.2 305.68-3.47Q302.87 0.49 297.11 0.49ZM296.62-23.19L296.62-23.19Q293.94-23.19 292.64-21.35 291.35-19.51 291.18-15.63L291.18-15.63 301.58-15.63 301.58-16.21Q301.41-19.97 300.22-21.58 299.04-23.19 296.62-23.19ZM313.05-26.42L318.25-6.57 323.26-26.42 327.65-26.42 319.81 0 316.59 0 308.66-26.42 313.05-26.42Z" opacity="1" transform="matrix(1,0,0,1,0,0)" fill="#f7f7ee" class="slogan-text-1" data-fill-palette-color="secondary" id="text-1"></path></svg></g></svg></g></svg></g></svg></g><g><svg viewBox="0 0 188.28185031097493 132.11980711362588" height="132.11980711362588" width="188.28185031097493"><g><svg xmlns="http://www.w3.org/2000/svg" xmlns:xlink="http://www.w3.org/1999/xlink" version="1.1" x="8" y="0" viewBox="5.3283911687572 15.458431677550251 89.67160981434523 68.76752119189942" style="enable-background:new 0 0 100 100;" xml:space="preserve" height="132.11980711362588" width="172.28185031097493" class="icon-icon-0" data-fill-palette-color="accent" id="icon-0"><path d="M73.804 26.768c-0.004-2.149-0.937-3.092-3.084-3.092-18.055-0.003-36.11-0.003-54.165-0.001-1.992 0-2.936 0.949-2.948 2.963-0.011 1.988-0.003 3.976 0.003 5.964 0.001 0.231 0.04 0.462 0.064 0.706 20.054 0 40.034 0 60.131 0C73.805 31.062 73.808 28.915 73.804 26.768z" fill="#f7f7ee" data-fill-palette-color="accent"></path><path d="M81.636 33.337c2.509 0.025 4.611-2.019 4.631-4.503 0.02-2.569-2.011-4.659-4.544-4.675-2.515-0.016-4.603 2.015-4.634 4.507C77.056 31.226 79.087 33.312 81.636 33.337z" fill="#f7f7ee" data-fill-palette-color="accent"></path><path d="M87.215 15.463c-24.694-0.004-49.388-0.006-74.083-0.003-4.748 0.001-7.796 3.073-7.798 7.893C5.324 41.014 5.329 58.675 5.337 76.336c0 0.647 0.015 1.31 0.145 1.939 0.734 3.581 3.622 5.94 7.283 5.943 12.422 0.009 24.845 0.003 37.268 0.005 1.354 0.001 2.707 0.001 4.06 0.001 11.189-0.001 22.378 0.009 33.567-0.01 3.288-0.006 6.049-2.042 6.946-5.174 0.292-1.019 0.368-2.135 0.37-3.207 0.026-10.968 0.016-21.937 0.016-32.905 0-6.507 0.024-13.013-0.011-19.52C94.955 18.546 91.914 15.464 87.215 15.463zM90.753 43.765c0 9.641 0.009 19.282-0.014 28.922-0.002 0.942-0.071 1.923-0.336 2.819-0.812 2.753-3.311 4.543-6.289 4.548-10.131 0.017-20.262 0.008-30.392 0.009-1.226 0-2.451 0-3.677-0.001-11.248-0.001-22.495 0.004-33.743-0.004-3.315-0.002-5.93-2.076-6.595-5.224-0.117-0.553-0.13-1.136-0.131-1.705-0.007-15.523-0.012-31.047-0.003-46.57 0.002-4.236 2.762-6.937 7.061-6.937 22.359-0.003 44.718-0.001 67.077 0.002 4.255 0.001 7.008 2.71 7.032 6.983C90.775 32.326 90.753 38.045 90.753 43.765z" fill="#f7f7ee" data-fill-palette-color="accent"></path><path d="M46.828 38.927H17.424c-1.657 0-3 1.343-3 3v10.146c0 5.813 0 11.625-0.006 17.438 0 0.646-0.002 2.609 1.648 4.109 1.393 1.268 3.028 1.294 3.852 1.294 0.018 0 0.036 0 0.054 0l26.856-0.002c1.657 0 3-1.343 3-3V41.927C49.828 40.271 48.484 38.927 46.828 38.927zM43.828 68.912l-23.409 0.002c0.005-5.613 0.005-11.227 0.005-16.84v-7.147h23.404V68.912z" fill="#f7f7ee" data-fill-palette-color="accent"></path><path d="M27.103 65.124c0.551 0.488 1.259 0.753 1.987 0.752 0.11 0 0.22-0.006 0.33-0.018 0.842-0.093 1.604-0.538 2.101-1.224l8.611-11.912c0.971-1.343 0.669-3.218-0.674-4.189-1.343-0.972-3.218-0.669-4.188 0.674l-6.672 9.229-1.396-1.234c-1.242-1.099-3.137-0.982-4.234 0.26-1.098 1.241-0.981 3.137 0.26 4.234L27.103 65.124z" fill="#f7f7ee" data-fill-palette-color="accent"></path><path d="M56.42 76.011c9.045 0 18.091-0.001 27.137-0.002 2.272 0 3.159-0.888 3.159-3.171 0.002-11.219 0.001-22.439 0.001-33.658 0-0.292 0-0.583 0-0.92-10.113 0-20.204 0-30.297 0V76.011z" fill="#f7f7ee" data-fill-palette-color="accent"></path></svg></g></svg></g></svg></g><defs></defs></svg><rect width="395.52" height="86.7643232749627" fill="none" stroke="none" visibility="hidden"></rect></g></svg></g></svg>